#!OML:ASF H:\Terrain\Walking\May29\JustinRory\Justin.ASF
:FULLY-SPECIFIED
:DEGREES
176
root 11.2857 17.9563 7.21922 -170.267 -30.3263 -179.367
lowerback 8.35757 1.16401 0.190025
upperback 2.56002 1.4444 0.759328
thorax -2.05029 0.659508 0.534309
lowerneck -4.37284 -14.3832 -19.2988
upperneck 10.8954 -19.4809 11.5264
head 7.05595 -9.67131 4.76553
rclavicle 1.00386e-013 -1.51076e-014
rhumerus -11.3557 3.28186 -83.3216
rradius 67.379
rwrist -37.2764
rhand -34.1333 34.8467
rfingers 7.12502
rthumb -7.30825 4.99288
lclavicle 1.00386e-013 -1.51076e-014
lhumerus -31.8533 1.98087 78.8931
lradius 50.1466
lwrist -0.204797
lhand -7.12369 33.5234
lfingers 7.12502
lthumb 18.7519 62.6396
rfemur -28.3353 -8.60067 26.5463
rtibia 26.9709
rfoot -8.6624 -11.144
rtoes 25.3529
lfemur -26.096 6.21068 -15.2251
ltibia 32.0681
lfoot -18.996 4.86834
ltoes -16.6304
177
root 11.3011 17.9717 7.24001 -170.312 -30.9171 -179.654
lowerback 8.45809 1.04187 -0.00117711
upperback 2.77413 1.25357 0.872356
thorax -1.88994 0.557706 0.777787
lowerneck -4.57706 -14.4981 -19.5719
upperneck 10.6792 -19.5699 11.7322
head 7.08451 -9.69921 4.83891
rclavicle -1.16289e-014 -1.39149e-014
rhumerus -10.9403 3.41127 -82.8208
rradius 67.2936
rwrist -37.7295
rhand -34.2837 34.9958
rfingers 7.12502
rthumb -7.45345 5.14708
lclavicle -1.16289e-014 -1.39149e-014
lhumerus -31.744 1.68271 79.1846
lradius 49.7245
lwrist 0.0983658
lhand -7.66176 34.7874
lfingers 7.12502
lthumb 18.2343 63.9527
rfemur -28.0203 -9.01972 26.2957
rtibia 26.6141
rfoot -8.60681 -11.4334
rtoes 25.3297
lfemur -26.0036 5.95566 -15.4943
ltibia 32.6164
lfoot -19.3171 5.82347
ltoes -16.2589
178
root 11.3173 17.9798 7.25823 -170.559 -31.3977 -179.484
lowerback 8.58515 0.920848 0.229546
upperback 2.88058 1.10428 0.986691
thorax -1.84574 0.478818 0.780181
lowerneck -4.65099 -14.557 -19.7276
upperneck 10.5508 -19.6313 11.9231
head 7.10197 -9.71837 4.9053
rclavicle -2.15681e-014 1.07344e-014
rhumerus -10.7265 3.55739 -82.5246
rradius 67.3037
rwrist -38.1455
rhand -34.5168 35.2229
rfingers 7.12502
rthumb -7.67837 5.38233
lclavicle -2.15681e-014 1.07344e-014
lhumerus -31.8302 1.6816 79.0808
lradius 49.1814
lwrist -0.302089
lhand -7.50977 34.9753
lfingers 7.12502
lthumb 18.3805 64.1269
rfemur -27.6865 -9.2027 26.4672
rtibia 26.2544
rfoot -8.55197 -11.7939
rtoes 25.1735
lfemur -25.9077 6.1957 -15.4015
ltibia 33.1421
lfoot -19.4996 6.62807
ltoes -16.5646
179
root 11.3301 17.9811 7.28015 -170.75 -31.7875 -179.238
lowerback 8.60394 0.873524 0.503279
upperback 2.94488 1.05978 1.10625
thorax -1.78609 0.45393 0.754475
lowerneck -4.84698 -14.6246 -19.4941
upperneck 10.5106 -19.6643 11.7091
head 7.07987 -9.72753 4.78917
rclavicle -8.13029e-014 5.1684e-015
rhumerus -10.5313 3.39571 -82.2307
rradius 67.2996
rwrist -38.4494
rhand -34.8041 35.4164
rfingers 7.12502
rthumb -7.95567 5.58608
lclavicle -8.13029e-014 5.1684e-015
lhumerus -31.7216 2.34041 78.6972
lradius 48.0682
lwrist -1.93242
lhand -6.04226 33.4345
lfingers 7.12502
lthumb 19.7917 62.4469
rfemur -27.5132 -9.40024 26.7373
rtibia 25.9667
rfoot -8.35595 -12.0895
rtoes 24.6874
lfemur -25.8051 6.71281 -15.2903
ltibia 33.494
lfoot -19.7543 7.07855
ltoes -16.1261
180
root 11.3452 17.9903 7.306 -170.616 -32.194 -179.524
lowerback 8.59269 0.875877 0.274946
upperback 2.96662 1.04433 1.14498
thorax -1.76234 0.4455 0.924534
lowerneck -4.91527 -14.6724 -19.2176
upperneck 10.3864 -19.6826 11.4337
head 6.99575 -9.73698 4.66263
rclavicle 3.81667e-014 4.77083e-015
rhumerus -10.2198 3.07659 -81.8693
rradius 67.0146
rwrist -38.5877
rhand -35.0372 35.4328
rfingers 7.12502
rthumb -8.18071 5.61114
lclavicle 3.81667e-014 4.77083e-015
lhumerus -31.6177 2.89899 78.5229
lradius 46.9044
lwrist -3.07268
lhand -4.85574 32.1733
lfingers 7.12502
lthumb 20.932 61.0639
rfemur -27.4547 -9.592 26.491
rtibia 25.7623
rfoot -8.21257 -12.4108
rtoes 25.1113
lfemur -25.7404 6.81832 -15.6089
ltibia 33.8722
lfoot -19.8207 7.12033
ltoes -13.0806
181
root 11.3623 18.016 7.32937 -170.595 -32.6217 -179.716
lowerback 8.6701 0.864163 0.128965
upperback 2.93003 1.02075 1.19641
thorax -1.84614 0.434186 1.06086
lowerneck -4.55708 -14.6366 -19.2236
upperneck 10.0502 -19.6763 11.5081
head 6.83563 -9.74319 4.72172
rclavicle 4.97956e-014 -3.97569e-014
rhumerus -9.97046 2.85056 -81.4733
rradius 66.6208
rwrist -38.9323
rhand -35.2597 35.3134
rfingers 7.12502
rthumb -8.39537 5.50027
lclavicle 4.97956e-014 -3.97569e-014
lhumerus -31.8301 2.91526 78.5744
lradius 46.3519
lwrist -3.30841
lhand -4.21445 32.9357
lfingers 7.12502
lthumb 21.548 61.757
rfemur -27.3578 -9.77002 26.3333
rtibia 25.7262
rfoot -8.29037 -12.7388
rtoes 25.7895
lfemur -25.5513 6.94549 -15.8169
ltibia 34.2211
lfoot -19.3322 6.61377
ltoes -9.78214
182
root 11.3713 18.0315 7.35451 -170.589 -33.0208 -179.876
lowerback 8.74687 0.829133 0.150388
upperback 2.87133 0.980524 1.18314
thorax -1.94782 0.415966 1.03797
lowerneck -4.1974 -14.6153 -19.3054
upperneck 9.74977 -19.7103 11.7331
head 6.71764 -9.76404 4.82997
rclavicle -4.6118e-014 3.57812e-015
rhumerus -9.75603 2.56541 -81.1045
rradius 66.2345
rwrist -39.5563
rhand -35.3796 35.162
rfingers 7.12502
rthumb -8.51115 5.35348
lclavicle -4.6118e-014 3.57812e-015
lhumerus -32.0871 2.7477 78.5994
lradius 45.8657
lwrist -3.22766
lhand -4.03924 33.8791
lfingers 7.12502
lthumb 21.7163 62.681
rfemur -27.3532 -10.1484 26.2335
rtibia 25.7788
rfoot -8.43199 -12.9147
rtoes 25.7214
lfemur -25.2779 7.08651 -16.0363
ltibia 34.5871
lfoot -18.8815 6.27221
ltoes -8.40528
